<svg width="43" height="43" viewBox="0 0 43 43" fill="none" xmlns="http://www.w3.org/2000/svg">
<g clip-path="url(#clip0_39_33)">
<path d="M0.223145 17.6402L0.332022 17.1403L2.9273 17.7069L3.21394 16.4004L3.65612 16.4982L3.2606 18.3024L0.223145 17.6381V17.6402Z" fill="white" fill-opacity="0.8"/>
<path d="M1.57981 13.0479L2.00643 13.2056L1.48204 14.6321L2.29085 14.9299L2.72413 13.7544L3.13743 13.9055L2.70413 15.081L3.5507 15.392L4.09511 13.9166L4.5195 14.0744L3.79957 16.0297L0.879883 14.9543L1.58203 13.0479H1.57981Z" fill="white" fill-opacity="0.8"/>
<path d="M3.0466 10.2061L3.44433 10.4216L2.9866 11.2659L5.32192 12.5325L5.07748 12.9813L2.74218 11.7148L2.28445 12.5591L1.88672 12.3436L3.0466 10.2061Z" fill="white" fill-opacity="0.8"/>
<path d="M4.31227 9.24384C4.48779 9.36604 4.5878 9.51268 4.61224 9.68599C4.63668 9.85932 4.58558 10.0371 4.46113 10.2215L4.25003 10.0748C4.32114 9.96597 4.35004 9.86599 4.33449 9.77488C4.31892 9.68377 4.2745 9.61266 4.20115 9.56157C4.17895 9.54602 4.16338 9.53712 4.15005 9.53269C4.15227 9.58157 4.13672 9.63045 4.10339 9.67934C4.05897 9.74155 4.00341 9.77934 3.93452 9.79267C3.86563 9.80378 3.79453 9.78378 3.71899 9.73268C3.64788 9.68377 3.60789 9.61712 3.59456 9.53269C3.58345 9.44826 3.60568 9.36604 3.66345 9.28161C3.7301 9.18382 3.82564 9.13272 3.95006 9.12828C4.0723 9.12382 4.1945 9.16162 4.31227 9.24605V9.24384Z" fill="white" fill-opacity="0.8"/>
<path d="M6.75437 9.44095C6.9277 9.41208 7.08324 9.31653 7.22542 9.15432C7.34987 9.01211 7.42098 8.86992 7.43652 8.72771C7.45207 8.5855 7.4054 8.46773 7.29653 8.37218C7.21877 8.3033 7.13656 8.27442 7.04769 8.28107C6.96101 8.28997 6.86771 8.3233 6.77216 8.38551C6.67437 8.44551 6.54773 8.54105 6.38998 8.6655C6.22998 8.79436 6.08112 8.89212 5.94334 8.96322C5.80559 9.03433 5.66116 9.06323 5.51227 9.05434C5.36341 9.04544 5.21677 8.97655 5.07234 8.84992C4.93902 8.73215 4.85013 8.59437 4.80568 8.43218C4.76126 8.26996 4.76569 8.10109 4.81901 7.92336C4.87235 7.74559 4.9679 7.57672 5.11011 7.41451C5.25675 7.24786 5.41897 7.12565 5.59671 7.04787C5.77447 6.97011 5.95002 6.94121 6.12556 6.96122C6.30108 6.98122 6.46108 7.04789 6.60773 7.16564L6.27664 7.54339C6.14554 7.45228 6.00111 7.41897 5.84779 7.44562C5.6945 7.47228 5.55672 7.55672 5.4323 7.69668C5.31231 7.83224 5.24786 7.96778 5.23675 8.10109C5.22563 8.23441 5.2723 8.34774 5.37896 8.44107C5.45452 8.50772 5.53671 8.53662 5.62339 8.52772C5.71004 8.51886 5.79891 8.48328 5.89224 8.42328C5.98557 8.36329 6.10999 8.26996 6.26775 8.14332C6.42775 8.01444 6.57661 7.91668 6.7166 7.84557C6.8566 7.77447 7.00102 7.74338 7.14767 7.75003C7.29431 7.7567 7.44096 7.82335 7.58317 7.94777C7.72094 8.06776 7.81427 8.21443 7.85869 8.3833C7.90314 8.55216 7.89871 8.72993 7.84537 8.91434C7.79205 9.09878 7.69204 9.27655 7.5454 9.4432C7.38321 9.62761 7.20766 9.76093 7.01879 9.84315C6.82991 9.92536 6.63882 9.95424 6.45219 9.92758C6.26331 9.90314 6.09223 9.82314 5.93447 9.69204L6.27221 9.31875C6.42107 9.42763 6.58107 9.46986 6.75215 9.44095H6.75437Z" fill="white" fill-opacity="0.8"/>
<path d="M9.54377 3.83333C9.77931 3.83999 9.97262 3.94443 10.1193 4.15107C10.2281 4.30217 10.277 4.45547 10.2682 4.61101C10.257 4.76655 10.1882 4.91543 10.0615 5.05764C10.4859 4.85101 10.817 4.91322 11.0547 5.24649C11.2125 5.46427 11.2547 5.69535 11.1814 5.93754C11.1081 6.17973 10.9214 6.40859 10.6214 6.62413L9.66154 7.31517L7.84619 4.78877L8.77275 4.12219C9.04828 3.9222 9.30601 3.82666 9.54155 3.83333H9.54377ZM9.5571 5.1865C9.69931 5.0843 9.78599 4.97318 9.81708 4.85098C9.8482 4.72878 9.82376 4.61325 9.74154 4.49991C9.65932 4.3866 9.5571 4.32661 9.43268 4.31993C9.30826 4.31328 9.17494 4.35992 9.03495 4.46214L8.51277 4.83765L9.03495 5.56203L9.5571 5.1865ZM10.377 6.27306C10.5415 6.15529 10.6414 6.03309 10.6836 5.90199C10.7237 5.77311 10.7014 5.64868 10.617 5.53091C10.5281 5.40871 10.4148 5.34426 10.2793 5.34204C10.1415 5.33982 9.99263 5.39538 9.83263 5.51091L9.28382 5.9042L9.83041 6.66636L10.3792 6.27306H10.377Z" fill="white" fill-opacity="0.8"/>
<path d="M11.8634 4.29322C11.9945 4.55542 12.1434 4.7265 12.3123 4.8065C12.4811 4.8865 12.6745 4.87317 12.8922 4.76427C13.1122 4.6554 13.2433 4.50875 13.2811 4.32431C13.3211 4.1399 13.2744 3.91769 13.1433 3.65549L12.3389 2.04012L12.7967 1.81348L13.5877 3.40665C13.7855 3.80438 13.8432 4.15323 13.7588 4.45319C13.6744 4.75316 13.4521 4.99313 13.0922 5.17312C12.7344 5.35088 12.41 5.38421 12.1212 5.26866C11.8323 5.15314 11.5901 4.89762 11.3901 4.49986L10.5991 2.90669L11.0568 2.67783L11.8612 4.29322H11.8634Z" fill="white" fill-opacity="0.8"/>
<path d="M14.2698 1.28711L15.3119 4.21793L14.8297 4.38901L13.7876 1.45821L14.2698 1.28711Z" fill="white" fill-opacity="0.8"/>
<path d="M15.2568 0.960097L15.7524 0.837891L16.3856 3.41982L17.6855 3.10209L17.7943 3.54205L15.999 3.98201L15.2591 0.960097H15.2568Z" fill="white" fill-opacity="0.8"/>
<path d="M18.9619 0.260061C19.2774 0.231176 19.5596 0.271173 19.8062 0.380051C20.0529 0.488929 20.2529 0.65335 20.3995 0.87555C20.5484 1.09775 20.635 1.36217 20.6639 1.66881C20.6906 1.97322 20.6528 2.24874 20.5484 2.49316C20.4439 2.73757 20.2773 2.93756 20.0551 3.08864C19.8307 3.23974 19.5618 3.33086 19.2463 3.35973L18.2597 3.45084L17.9775 0.353381L18.9641 0.262286L18.9619 0.260061ZM19.9462 2.54648C20.1084 2.33095 20.1729 2.0532 20.1418 1.71546C20.1106 1.3755 19.9973 1.11553 19.7974 0.933324C19.5974 0.751121 19.3329 0.673352 18.9996 0.70446L18.5219 0.748902L18.7241 2.962L19.2018 2.91755C19.5352 2.88646 19.7818 2.76424 19.944 2.54871L19.9462 2.54648Z" fill="white" fill-opacity="0.8"/>
<path d="M25.3239 0.527199L25.2617 0.976039L24.3106 0.842718L23.9418 3.47355L23.4352 3.40244L23.804 0.771613L22.853 0.6383L22.9152 0.189453L25.3217 0.527199H25.3239Z" fill="white" fill-opacity="0.8"/>
<path d="M27.2513 4.11084C26.9912 4.17308 26.7224 4.16194 26.4425 4.0775C26.1625 3.99307 25.9314 3.85089 25.7514 3.65312C25.5715 3.45537 25.4559 3.22427 25.4048 2.95764C25.3537 2.691 25.3715 2.41325 25.4603 2.12439C25.5492 1.83553 25.6892 1.59556 25.8803 1.40225C26.0714 1.20893 26.298 1.08227 26.558 1.02006C26.818 0.957843 27.0868 0.968958 27.3667 1.05339C27.6467 1.13783 27.878 1.28003 28.0578 1.47779C28.2378 1.67554 28.3535 1.90663 28.4045 2.17327C28.4555 2.43991 28.4379 2.71766 28.3489 3.00652C28.26 3.29537 28.12 3.53535 27.929 3.72866C27.7378 3.92197 27.5113 4.04863 27.2513 4.11084ZM26.1247 3.35983C26.2402 3.49536 26.3891 3.59091 26.5736 3.64868C26.758 3.70422 26.9356 3.70868 27.1068 3.65979C27.2781 3.61089 27.429 3.51758 27.558 3.37537C27.6867 3.23316 27.7845 3.05983 27.8467 2.85319C27.909 2.64655 27.9269 2.4488 27.8978 2.25771C27.8689 2.06662 27.7979 1.90441 27.6822 1.76887C27.5668 1.63333 27.418 1.53778 27.2335 1.48001C27.0491 1.42446 26.8713 1.42002 26.7002 1.4689C26.5291 1.51779 26.378 1.6111 26.2491 1.75331C26.1203 1.89552 26.0225 2.06884 25.9603 2.27549C25.8981 2.48213 25.8803 2.67989 25.9092 2.87098C25.9381 3.06208 26.0092 3.22427 26.1247 3.35983Z" fill="white" fill-opacity="0.8"/>
<path d="M30.221 2.35574C30.4854 2.34463 30.752 2.41129 31.0207 2.55128C31.3386 2.71793 31.5563 2.94235 31.6762 3.22675C31.7964 3.51117 31.8007 3.81114 31.6941 4.12889L31.2454 3.89335C31.2919 3.69337 31.2785 3.51117 31.2008 3.3423C31.123 3.17565 30.9898 3.04012 30.8009 2.94235C30.6275 2.85124 30.4542 2.81347 30.2787 2.83125C30.1032 2.84903 29.9411 2.91345 29.792 3.02679C29.6411 3.1401 29.5142 3.29564 29.4122 3.49341C29.3099 3.69115 29.2522 3.88224 29.2434 4.0689C29.2343 4.25556 29.2722 4.42664 29.3566 4.57994C29.441 4.73326 29.5698 4.85549 29.7431 4.94658C29.9632 5.06213 30.1788 5.09768 30.392 5.05545C30.603 5.01325 30.7721 4.88659 30.8941 4.67549L30.9297 4.60884L30.1654 4.20889L30.3652 3.82668L31.563 4.45552L30.7721 5.96425L30.4299 5.78427L30.5899 5.36653C30.4497 5.43986 30.2875 5.47987 30.0987 5.4843C29.9098 5.48874 29.7164 5.43986 29.5166 5.33544C29.261 5.20213 29.0676 5.02436 28.9322 4.80437C28.7965 4.5844 28.73 4.33999 28.73 4.0689C28.73 3.79781 28.8032 3.5245 28.9477 3.24897C29.0943 2.97123 29.2765 2.75569 29.4966 2.60015C29.7164 2.44684 29.9587 2.36241 30.221 2.35352V2.35574Z" fill="white" fill-opacity="0.8"/>
<path d="M34.7771 5.07339L34.5038 5.43557L33.2906 4.52009L32.7705 5.20892L33.7706 5.9644L33.5062 6.31546L32.5061 5.55999L31.9617 6.27994L33.2172 7.22872L32.9439 7.5909L31.2798 6.33547L33.1549 3.85352L34.775 5.07783L34.7771 5.07339Z" fill="white" fill-opacity="0.8"/>
<path d="M37.0758 7.29677L36.7537 7.61674L36.0781 6.93459L34.1894 8.80552L33.8296 8.44332L35.7181 6.57241L35.0425 5.89026L35.365 5.57031L37.0758 7.29677Z" fill="white" fill-opacity="0.8"/>
<path d="M37.995 8.43502L36.9305 9.19939L37.7727 10.3726L38.8372 9.60824L39.1347 10.0238L36.6041 11.8391L36.3063 11.4236L37.4038 10.637L36.5619 9.46381L35.4641 10.2504L35.1665 9.83491L37.6971 8.01953L37.995 8.43502Z" fill="white" fill-opacity="0.8"/>
<path d="M40.6031 12.8188L40.1987 13.0232L39.5165 11.6655L38.7453 12.0522L39.3076 13.172L38.9141 13.3698L38.3521 12.2499L37.5454 12.6543L38.2522 14.0608L37.8478 14.2652L36.9121 12.4032L39.692 11.0078L40.6031 12.8232V12.8188Z" fill="white" fill-opacity="0.8"/>
<path d="M41.4324 15.5047C41.4057 15.6847 41.3346 15.8402 41.2214 15.9736C41.1081 16.1069 40.9548 16.2024 40.7659 16.2646C40.568 16.3291 40.3792 16.3335 40.1948 16.278C40.0103 16.2224 39.8615 16.118 39.7416 15.9624L38.7661 16.9712L38.5906 16.4313L39.4814 15.5203L39.2682 14.8626L38.195 15.2114L38.0371 14.7248L40.9946 13.7627L41.3747 14.9292C41.4412 15.1337 41.4612 15.327 41.4345 15.5069L41.4324 15.5047ZM39.8992 15.3625C39.9547 15.5381 40.0482 15.6603 40.1769 15.7336C40.306 15.8069 40.4481 15.8158 40.6059 15.7647C40.7635 15.7136 40.8725 15.6203 40.9347 15.4869C40.997 15.3536 40.997 15.2003 40.9414 15.0248L40.7325 14.3826L39.6927 14.7204L39.9016 15.3625H39.8992Z" fill="white" fill-opacity="0.8"/>
<path d="M3.52564 25.7334L3.67007 26.2245L1.12144 26.9777L1.5014 28.2598L1.06589 28.3886L0.541504 26.6155L3.52564 25.7334Z" fill="white" fill-opacity="0.8"/>
<path d="M5.05988 29.8174L4.6466 30.0041L4.01998 28.6197L3.23342 28.9752L3.74892 30.1174L3.34894 30.2996L2.83345 29.1574L2.01132 29.5284L2.66014 30.9617L2.24685 31.1485L1.38916 29.2509L4.22219 27.9688L5.05988 29.8196V29.8174Z" fill="white" fill-opacity="0.8"/>
<path d="M6.516 32.1523L6.13382 32.3967L5.6161 31.5879L3.37855 33.0188L3.10303 32.5877L5.34057 31.1567L4.82283 30.3479L5.20501 30.1035L6.51379 32.1499L6.516 32.1523Z" fill="white" fill-opacity="0.8"/>
<path d="M6.89224 33.3523C6.72558 33.4859 6.55672 33.5412 6.38563 33.5169C6.21452 33.4923 6.05676 33.3945 5.91455 33.2236L6.11454 33.0614C6.19897 33.1613 6.28562 33.2148 6.37895 33.2257C6.47006 33.2348 6.55004 33.2123 6.62114 33.1568C6.64115 33.1392 6.6567 33.1279 6.66337 33.117C6.61671 33.1058 6.57448 33.0769 6.53671 33.0302C6.48783 32.9703 6.46782 32.9057 6.4745 32.8368C6.48118 32.7681 6.52116 32.7059 6.59227 32.6479C6.65891 32.5948 6.73448 32.5726 6.81891 32.5857C6.90335 32.5969 6.97667 32.6437 7.03888 32.7214C7.11442 32.8146 7.13664 32.9191 7.10555 33.039C7.07665 33.1592 7.00554 33.2636 6.89224 33.3547V33.3523Z" fill="white" fill-opacity="0.8"/>
<path d="M6.26385 35.7271C6.28161 35.9005 6.36605 36.0648 6.52159 36.216C6.65714 36.3492 6.79489 36.4291 6.93489 36.4537C7.07488 36.478 7.19709 36.4382 7.29928 36.3359C7.37263 36.2627 7.40816 36.1826 7.40594 36.0936C7.40372 36.0049 7.37485 35.9114 7.31929 35.8115C7.26373 35.7116 7.1793 35.5781 7.06377 35.4138C6.946 35.2471 6.85489 35.0917 6.79489 34.9493C6.73268 34.8072 6.71268 34.6627 6.73047 34.5139C6.75047 34.3649 6.82823 34.2228 6.96376 34.0873C7.08821 33.9607 7.23264 33.8806 7.39707 33.8472C7.56148 33.8138 7.73035 33.8296 7.90368 33.8918C8.07698 33.954 8.2392 34.0628 8.39474 34.2139C8.55249 34.3694 8.66359 34.5406 8.73026 34.7204C8.7969 34.9028 8.81247 35.0805 8.78357 35.2538C8.7547 35.4272 8.6747 35.5848 8.55028 35.7226L8.19253 35.3692C8.29251 35.2426 8.33474 35.1026 8.31695 34.9472C8.29919 34.7917 8.22365 34.6493 8.09255 34.5182C7.96367 34.3916 7.83479 34.316 7.70147 34.2962C7.56816 34.2762 7.4526 34.316 7.35262 34.4161C7.28152 34.4872 7.24818 34.5671 7.2504 34.6539C7.25486 34.7404 7.28374 34.8315 7.33708 34.9293C7.39261 35.0249 7.47705 35.156 7.5926 35.3203C7.71037 35.487 7.80145 35.6427 7.86145 35.787C7.92144 35.9315 7.94588 36.076 7.93034 36.2226C7.91479 36.3693 7.83925 36.5092 7.70591 36.6447C7.57705 36.7758 7.42595 36.8581 7.25486 36.8915C7.08375 36.9246 6.90601 36.9091 6.72603 36.8447C6.54381 36.7804 6.37494 36.6692 6.21718 36.5114C6.04164 36.338 5.91943 36.1537 5.85054 35.9603C5.78168 35.7648 5.76389 35.5759 5.80166 35.3892C5.83946 35.2028 5.92833 35.0361 6.07054 34.8895L6.4216 35.2493C6.30162 35.3892 6.25274 35.5471 6.27053 35.7205L6.26385 35.7271Z" fill="white" fill-opacity="0.8"/>
<path d="M12.2401 37.4383C12.3267 37.6584 12.3023 37.8761 12.1689 38.0938C12.0712 38.2517 11.949 38.3582 11.8001 38.4071C11.6512 38.456 11.489 38.4515 11.3091 38.3895C11.6623 38.7004 11.7334 39.0316 11.5179 39.3805C11.3757 39.6091 11.1802 39.7381 10.9291 39.7649C10.678 39.7916 10.3958 39.7069 10.0803 39.5138L9.07373 38.8938L10.7047 36.2451L11.6779 36.8429C11.969 37.0205 12.1556 37.2206 12.2423 37.4407L12.2401 37.4383ZM10.3092 39.147C10.4803 39.2515 10.6336 39.2982 10.7691 39.287C10.9047 39.276 11.0091 39.2071 11.0846 39.0827C11.1646 38.9536 11.178 38.8249 11.1291 38.6983C11.0802 38.5693 10.9691 38.4539 10.8002 38.3494L10.2247 37.996L9.73366 38.7939L10.3092 39.147ZM10.9958 37.9717C11.1446 38.0628 11.2802 38.1005 11.4046 38.0829C11.529 38.065 11.6268 37.996 11.7001 37.8782C11.7734 37.7604 11.789 37.6429 11.749 37.5251C11.709 37.4073 11.6135 37.3029 11.4646 37.2118L10.9158 36.8739L10.4469 37.6338L10.9958 37.9717Z" fill="white" fill-opacity="0.8"/>
<path d="M12.9217 39.5539C12.8106 39.825 12.7795 40.0515 12.8306 40.2294C12.8817 40.4071 13.0195 40.5449 13.2439 40.6381C13.4706 40.7313 13.6683 40.7337 13.8305 40.6402C13.9927 40.547 14.1327 40.367 14.2438 40.0959L14.9282 38.4272L15.4015 38.6206L14.726 40.265C14.5571 40.676 14.3327 40.9493 14.0505 41.0826C13.7705 41.218 13.4417 41.2071 13.0684 41.0559C12.6973 40.9047 12.4618 40.6803 12.3574 40.3892C12.2529 40.0959 12.2862 39.7449 12.4551 39.3338L13.1306 37.6895L13.6039 37.885L12.9195 39.5539H12.9217Z" fill="white" fill-opacity="0.8"/>
<path d="M16.5555 38.9245L15.7267 41.922L15.2334 41.7863L16.0622 38.7891L16.5555 38.9245Z" fill="white" fill-opacity="0.8"/>
<path d="M17.257 39.1094L17.7614 39.1959L17.3148 41.8158L18.6324 42.0401L18.5569 42.4867L16.7349 42.1756L17.257 39.1094Z" fill="white" fill-opacity="0.8"/>
<path d="M20.5381 39.4985C20.8558 39.5052 21.1313 39.5763 21.3647 39.7096C21.598 39.845 21.7779 40.0296 21.9001 40.2673C22.0224 40.5029 22.0801 40.7761 22.0757 41.0828C22.069 41.387 22.0002 41.656 21.8691 41.8892C21.738 42.1227 21.5513 42.3027 21.3113 42.4269C21.0714 42.5538 20.7936 42.6115 20.4759 42.6069L19.4849 42.5869L19.5471 39.4785L20.5381 39.4985ZM21.2647 41.8783C21.4491 41.6827 21.5446 41.4137 21.5513 41.0737C21.558 40.7339 21.4735 40.4607 21.2958 40.2585C21.118 40.0563 20.8625 39.9494 20.5292 39.9428L20.0492 39.9339L20.0048 42.1536L20.4847 42.1627C20.8203 42.1691 21.078 42.0738 21.2624 41.8783H21.2647Z" fill="white" fill-opacity="0.8"/>
<path d="M26.1576 38.8467L26.2531 39.2912L25.3132 39.4934L25.871 42.0932L25.371 42.1997L24.8133 39.5999L23.8734 39.8021L23.7778 39.3579L26.1553 38.8467H26.1576Z" fill="white" fill-opacity="0.8"/>
<path d="M29.4658 40.7445C29.3015 40.9555 29.0814 41.1134 28.8082 41.2178C28.5349 41.3244 28.2659 41.3532 28.0039 41.311C27.7416 41.2667 27.506 41.1556 27.3017 40.9779C27.0973 40.8001 26.9395 40.5711 26.8306 40.2891C26.7218 40.0067 26.684 39.7313 26.7151 39.4623C26.7462 39.1936 26.8462 38.9535 27.0105 38.7425C27.175 38.5315 27.3951 38.3736 27.6684 38.2692C27.9417 38.1626 28.2104 38.1313 28.4727 38.1759C28.735 38.2203 28.9703 38.3314 29.1749 38.5093C29.3793 38.6869 29.5371 38.9158 29.6458 39.1979C29.7548 39.4802 29.7925 39.7556 29.7615 40.0246C29.7302 40.2933 29.6303 40.5335 29.4658 40.7445ZM28.115 40.8511C28.2884 40.8866 28.466 40.869 28.646 40.8001C28.8261 40.7311 28.9682 40.6246 29.0726 40.4801C29.1771 40.3355 29.2372 40.1691 29.2526 39.9779C29.2681 39.7869 29.2348 39.589 29.157 39.3892C29.0793 39.187 28.9703 39.0203 28.8303 38.8891C28.6904 38.758 28.5328 38.6736 28.3594 38.638C28.1861 38.6025 28.0082 38.6204 27.8284 38.6891C27.6484 38.758 27.506 38.8648 27.4018 39.0091C27.2974 39.1536 27.2373 39.3202 27.2218 39.5112C27.206 39.7025 27.2394 39.9001 27.3172 40.1002C27.3951 40.3024 27.5039 40.4691 27.6438 40.6C27.7838 40.7311 27.9417 40.8155 28.115 40.8511Z" fill="white" fill-opacity="0.8"/>
<path d="M30.0982 37.3577C30.2226 37.1242 30.4139 36.9287 30.6738 36.7687C30.978 36.5799 31.2825 36.5067 31.587 36.5468C31.8913 36.589 32.1536 36.7356 32.3734 36.9888L31.9426 37.2554C31.7959 37.1133 31.6292 37.0332 31.4447 37.0155C31.2604 36.9976 31.0782 37.0444 30.896 37.1555C30.7293 37.2575 30.6094 37.3887 30.536 37.5487C30.4628 37.7087 30.4361 37.882 30.4582 38.0688C30.4804 38.2555 30.5493 38.4443 30.6671 38.6332C30.7849 38.822 30.9203 38.9687 31.0782 39.0707C31.2336 39.173 31.4003 39.2286 31.5758 39.2331C31.7513 39.2374 31.9225 39.1885 32.0892 39.084C32.3002 38.9532 32.4423 38.7865 32.5112 38.5819C32.5823 38.3775 32.558 38.1687 32.4402 37.9576L32.4001 37.8933L31.6669 38.3466L31.4404 37.9798L32.589 37.2666L33.4867 38.713L33.1579 38.9174L32.878 38.5685C32.8713 38.7264 32.8224 38.8885 32.7313 39.0531C32.6403 39.2173 32.4979 39.3597 32.3069 39.4775C32.0625 39.6284 31.8114 39.7064 31.5536 39.7131C31.2959 39.7174 31.0493 39.6509 30.8183 39.513C30.587 39.3752 30.3872 39.173 30.2248 38.9086C30.0584 38.642 29.9649 38.3754 29.9448 38.1064C29.9227 37.8398 29.9761 37.5888 30.1006 37.3577H30.0982Z" fill="white" fill-opacity="0.8"/>
<path d="M33.8643 34.332L34.1621 34.6742L33.0178 35.674L33.5843 36.3228L34.5286 35.4985L34.8176 35.8297L33.8731 36.654L34.4664 37.3338L35.6507 36.2985L35.9486 36.6407L34.3798 38.0139L32.3311 35.6719L33.8597 34.3342L33.8643 34.332Z" fill="white" fill-opacity="0.8"/>
<path d="M35.6878 32.2637L36.0321 32.5591L35.4057 33.288L37.4208 35.0189L37.0877 35.4054L35.0723 33.6746L34.4478 34.4035L34.1035 34.1078L35.6878 32.2637Z" fill="white" fill-opacity="0.8"/>
<path d="M36.2192 31.4631L37.3368 32.1499L38.0925 30.9187L36.9746 30.2323L37.2415 29.7969L39.8966 31.4276L39.63 31.8633L38.479 31.1565L37.7236 32.3876L38.8746 33.0941L38.6077 33.5298L35.9526 31.8988L36.2192 31.4631Z" fill="white" fill-opacity="0.8"/>
<path d="M38.2956 27.3398L38.7134 27.5132L38.1313 28.9174L38.9268 29.2486L39.4065 28.091L39.8133 28.2598L39.3333 29.4174L40.1664 29.762L40.7688 28.3087L41.1865 28.482L40.3887 30.4084L37.5156 29.2176L38.2935 27.3398H38.2956Z" fill="white" fill-opacity="0.8"/>
<path d="M39.0208 25.1087C39.1383 24.971 39.2807 24.8755 39.4474 24.8221C39.614 24.7688 39.7938 24.7688 39.9872 24.8155C40.1894 24.8643 40.3515 24.9621 40.4784 25.1065C40.605 25.251 40.6761 25.4198 40.6961 25.6131L42.056 25.271L41.9203 25.822L40.6827 26.1242L40.5161 26.7975L41.6115 27.0685L41.4894 27.564L38.4697 26.8197L38.763 25.6287C38.814 25.4198 38.9006 25.2443 39.0184 25.1065L39.0208 25.1087ZM40.2495 26.0376C40.2938 25.8598 40.2805 25.7065 40.2094 25.5776C40.1384 25.4487 40.0227 25.3643 39.8627 25.3243C39.7027 25.2843 39.5606 25.3065 39.4383 25.3865C39.3162 25.4665 39.2339 25.5976 39.1896 25.7754L39.0275 26.4308L40.0871 26.693L40.2495 26.0376Z" fill="white" fill-opacity="0.8"/>
<path d="M0.682889 21.2346C0.529692 21.3879 0.458984 21.5764 0.458984 21.8121C0.458984 22.0478 0.529692 22.2481 0.682889 22.3895C0.836086 22.5427 1.03642 22.6134 1.27211 22.6134C1.50779 22.6134 1.69634 22.5427 1.86132 22.3895C2.01452 22.2481 2.09701 22.0478 2.09701 21.8121C2.09701 21.5764 2.01452 21.3879 1.86132 21.2346C1.69634 21.0932 1.50779 21.0107 1.27211 21.0107C1.03642 21.0107 0.836086 21.0932 0.682889 21.2346Z" fill="white" fill-opacity="0.8"/>
<path d="M40.4807 19.8987C40.3276 20.0519 40.2568 20.2404 40.2568 20.4761C40.2568 20.7118 40.3276 20.9122 40.4807 21.0536C40.634 21.2068 40.8343 21.2775 41.0699 21.2775C41.3055 21.2775 41.4941 21.2068 41.6592 21.0536C41.8125 20.9122 41.8948 20.7118 41.8948 20.4761C41.8948 20.2404 41.8125 20.0519 41.6592 19.8987C41.4941 19.7573 41.3055 19.6748 41.0699 19.6748C40.8343 19.6748 40.634 19.7573 40.4807 19.8987Z" fill="white" fill-opacity="0.8"/>
</g>
<defs>
<clipPath id="clip0_39_33">
<rect width="41.9366" height="42.4709" fill="white" transform="translate(0.191406 0.175781)"/>
</clipPath>
</defs>
</svg>
