<svg width="218" height="68" viewBox="0 0 218 68" fill="none" xmlns="http://www.w3.org/2000/svg">
<path d="M198.502 0H0.00195312V51.5L16.502 68H218.002V19.5L198.502 0Z" fill="#A3A3A3"/>
<path d="M66.3351 33.574C67.0071 33.694 67.5771 34.048 68.0451 34.636C68.5131 35.224 68.7471 35.89 68.7471 36.634C68.7471 37.27 68.5791 37.846 68.2431 38.362C67.9191 38.866 67.4451 39.268 66.8211 39.568C66.1971 39.856 65.4711 40 64.6431 40H59.6391V27.49H64.4091C65.2611 27.49 65.9931 27.634 66.6051 27.922C67.2171 28.21 67.6791 28.6 67.9911 29.092C68.3031 29.572 68.4591 30.112 68.4591 30.712C68.4591 31.432 68.2671 32.032 67.8831 32.512C67.4991 32.992 66.9831 33.346 66.3351 33.574ZM61.6911 32.746H64.2291C64.9011 32.746 65.4231 32.596 65.7951 32.296C66.1791 31.984 66.3711 31.54 66.3711 30.964C66.3711 30.4 66.1791 29.962 65.7951 29.65C65.4231 29.326 64.9011 29.164 64.2291 29.164H61.6911V32.746ZM64.4631 38.326C65.1591 38.326 65.7051 38.158 66.1011 37.822C66.4971 37.486 66.6951 37.018 66.6951 36.418C66.6951 35.806 66.4851 35.32 66.0651 34.96C65.6451 34.6 65.0871 34.42 64.3911 34.42H61.6911V38.326H64.4631ZM75.279 40.162C74.343 40.162 73.497 39.952 72.741 39.532C71.985 39.1 71.391 38.5 70.959 37.732C70.527 36.952 70.311 36.052 70.311 35.032C70.311 34.024 70.533 33.13 70.977 32.35C71.421 31.57 72.027 30.97 72.795 30.55C73.563 30.13 74.421 29.92 75.369 29.92C76.317 29.92 77.175 30.13 77.943 30.55C78.711 30.97 79.317 31.57 79.761 32.35C80.205 33.13 80.427 34.024 80.427 35.032C80.427 36.04 80.199 36.934 79.743 37.714C79.287 38.494 78.663 39.1 77.871 39.532C77.091 39.952 76.227 40.162 75.279 40.162ZM75.279 38.38C75.807 38.38 76.299 38.254 76.755 38.002C77.223 37.75 77.601 37.372 77.889 36.868C78.177 36.364 78.321 35.752 78.321 35.032C78.321 34.312 78.183 33.706 77.907 33.214C77.631 32.71 77.265 32.332 76.809 32.08C76.353 31.828 75.861 31.702 75.333 31.702C74.805 31.702 74.313 31.828 73.857 32.08C73.413 32.332 73.059 32.71 72.795 33.214C72.531 33.706 72.399 34.312 72.399 35.032C72.399 36.1 72.669 36.928 73.209 37.516C73.761 38.092 74.451 38.38 75.279 38.38ZM86.7575 40.162C85.8215 40.162 84.9755 39.952 84.2195 39.532C83.4635 39.1 82.8695 38.5 82.4375 37.732C82.0055 36.952 81.7895 36.052 81.7895 35.032C81.7895 34.024 82.0115 33.13 82.4555 32.35C82.8995 31.57 83.5055 30.97 84.2735 30.55C85.0415 30.13 85.8995 29.92 86.8475 29.92C87.7955 29.92 88.6535 30.13 89.4215 30.55C90.1895 30.97 90.7955 31.57 91.2395 32.35C91.6835 33.13 91.9055 34.024 91.9055 35.032C91.9055 36.04 91.6775 36.934 91.2215 37.714C90.7655 38.494 90.1415 39.1 89.3495 39.532C88.5695 39.952 87.7055 40.162 86.7575 40.162ZM86.7575 38.38C87.2855 38.38 87.7775 38.254 88.2335 38.002C88.7015 37.75 89.0795 37.372 89.3675 36.868C89.6555 36.364 89.7995 35.752 89.7995 35.032C89.7995 34.312 89.6615 33.706 89.3855 33.214C89.1095 32.71 88.7435 32.332 88.2875 32.08C87.8315 31.828 87.3395 31.702 86.8115 31.702C86.2835 31.702 85.7915 31.828 85.3355 32.08C84.8915 32.332 84.5375 32.71 84.2735 33.214C84.0095 33.706 83.8775 34.312 83.8775 35.032C83.8775 36.1 84.1475 36.928 84.6875 37.516C85.2395 38.092 85.9295 38.38 86.7575 38.38ZM97.858 35.05L102.43 40H99.658L95.986 35.734V40H93.934V26.68H95.986V34.42L99.586 30.082H102.43L97.858 35.05ZM107.893 34.996C107.893 34 108.097 33.118 108.505 32.35C108.925 31.582 109.489 30.988 110.197 30.568C110.917 30.136 111.709 29.92 112.573 29.92C113.353 29.92 114.031 30.076 114.607 30.388C115.195 30.688 115.663 31.066 116.011 31.522V30.082H118.081V40H116.011V38.524C115.663 38.992 115.189 39.382 114.589 39.694C113.989 40.006 113.305 40.162 112.537 40.162C111.685 40.162 110.905 39.946 110.197 39.514C109.489 39.07 108.925 38.458 108.505 37.678C108.097 36.886 107.893 35.992 107.893 34.996ZM116.011 35.032C116.011 34.348 115.867 33.754 115.579 33.25C115.303 32.746 114.937 32.362 114.481 32.098C114.025 31.834 113.533 31.702 113.005 31.702C112.477 31.702 111.985 31.834 111.529 32.098C111.073 32.35 110.701 32.728 110.413 33.232C110.137 33.724 109.999 34.312 109.999 34.996C109.999 35.68 110.137 36.28 110.413 36.796C110.701 37.312 111.073 37.708 111.529 37.984C111.997 38.248 112.489 38.38 113.005 38.38C113.533 38.38 114.025 38.248 114.481 37.984C114.937 37.72 115.303 37.336 115.579 36.832C115.867 36.316 116.011 35.716 116.011 35.032ZM124.768 33.718C124.768 32.494 125.05 31.396 125.614 30.424C126.19 29.452 126.964 28.696 127.936 28.156C128.92 27.604 129.994 27.328 131.158 27.328C132.49 27.328 133.672 27.658 134.704 28.318C135.748 28.966 136.504 29.89 136.972 31.09H134.506C134.182 30.43 133.732 29.938 133.156 29.614C132.58 29.29 131.914 29.128 131.158 29.128C130.33 29.128 129.592 29.314 128.944 29.686C128.296 30.058 127.786 30.592 127.414 31.288C127.054 31.984 126.874 32.794 126.874 33.718C126.874 34.642 127.054 35.452 127.414 36.148C127.786 36.844 128.296 37.384 128.944 37.768C129.592 38.14 130.33 38.326 131.158 38.326C131.914 38.326 132.58 38.164 133.156 37.84C133.732 37.516 134.182 37.024 134.506 36.364H136.972C136.504 37.564 135.748 38.488 134.704 39.136C133.672 39.784 132.49 40.108 131.158 40.108C129.982 40.108 128.908 39.838 127.936 39.298C126.964 38.746 126.19 37.984 125.614 37.012C125.05 36.04 124.768 34.942 124.768 33.718ZM138.689 34.996C138.689 34 138.893 33.118 139.301 32.35C139.721 31.582 140.285 30.988 140.993 30.568C141.713 30.136 142.505 29.92 143.369 29.92C144.149 29.92 144.827 30.076 145.403 30.388C145.991 30.688 146.459 31.066 146.807 31.522V30.082H148.877V40H146.807V38.524C146.459 38.992 145.985 39.382 145.385 39.694C144.785 40.006 144.101 40.162 143.333 40.162C142.481 40.162 141.701 39.946 140.993 39.514C140.285 39.07 139.721 38.458 139.301 37.678C138.893 36.886 138.689 35.992 138.689 34.996ZM146.807 35.032C146.807 34.348 146.663 33.754 146.375 33.25C146.099 32.746 145.733 32.362 145.277 32.098C144.821 31.834 144.329 31.702 143.801 31.702C143.273 31.702 142.781 31.834 142.325 32.098C141.869 32.35 141.497 32.728 141.209 33.232C140.933 33.724 140.795 34.312 140.795 34.996C140.795 35.68 140.933 36.28 141.209 36.796C141.497 37.312 141.869 37.708 142.325 37.984C142.793 38.248 143.285 38.38 143.801 38.38C144.329 38.38 144.821 38.248 145.277 37.984C145.733 37.72 146.099 37.336 146.375 36.832C146.663 36.316 146.807 35.716 146.807 35.032ZM153.625 26.68V40H151.573V26.68H153.625ZM158.371 26.68V40H156.319V26.68H158.371Z" fill="black"/>
</svg>
