<svg width="7" height="14" viewBox="0 0 7 14" fill="none" xmlns="http://www.w3.org/2000/svg">
<g clip-path="url(#clip0_16_1706)">
<path d="M5.79719 2.19187L0.989164 2.19187C0.940485 2.19202 0.89277 2.20544 0.851154 2.2307C0.809538 2.25595 0.775597 2.29208 0.752985 2.33518C0.730373 2.37829 0.719946 2.42675 0.722826 2.47535C0.725706 2.52394 0.741785 2.57083 0.769331 2.61096L3.17334 6.08343C3.27298 6.2274 3.51284 6.2274 3.61274 6.08343L6.01675 2.61097C6.04458 2.57091 6.0609 2.524 6.06394 2.47533C6.06697 2.42665 6.05661 2.37808 6.03398 2.33488C6.01135 2.29168 5.97731 2.2555 5.93556 2.23029C5.89382 2.20508 5.84596 2.19179 5.79719 2.19187ZM3.39318 5.46212L1.49881 2.72609L5.28754 2.72609L3.39318 5.46212Z" fill="white"/>
</g>
<g clip-path="url(#clip1_16_1706)">
<path d="M5.79719 8.60202L0.989164 8.60202C0.940485 8.60217 0.89277 8.6156 0.851154 8.64085C0.809538 8.66611 0.775597 8.70223 0.752985 8.74534C0.730373 8.78845 0.719946 8.83691 0.722826 8.8855C0.725706 8.9341 0.741785 8.98099 0.769331 9.02112L3.17334 12.4936C3.27298 12.6376 3.51284 12.6376 3.61274 12.4936L6.01675 9.02112C6.04458 8.98107 6.0609 8.93416 6.06394 8.88548C6.06697 8.83681 6.05661 8.78823 6.03398 8.74503C6.01135 8.70183 5.97731 8.66566 5.93556 8.64045C5.89382 8.61523 5.84596 8.60194 5.79719 8.60202ZM3.39318 11.8723L1.49881 9.13625L5.28754 9.13625L3.39318 11.8723Z" fill="white"/>
</g>
<defs>
<clipPath id="clip0_16_1706">
<rect width="6.4107" height="6.4107" fill="white" transform="translate(6.59814 7.2666) rotate(-180)"/>
</clipPath>
<clipPath id="clip1_16_1706">
<rect width="6.4107" height="6.4107" fill="white" transform="translate(6.59814 13.6768) rotate(-180)"/>
</clipPath>
</defs>
</svg>
