<svg width="220" height="70" viewBox="0 0 220 70" fill="none" xmlns="http://www.w3.org/2000/svg">
<path d="M199.502 1H1.00195V52.5L17.502 69H219.002V20.5L199.502 1Z" stroke="#A3A3A3" stroke-width="2"/>
<path d="M27.8724 41.126C27.0324 41.126 26.2764 40.982 25.6044 40.694C24.9324 40.394 24.4044 39.974 24.0204 39.434C23.6364 38.894 23.4444 38.264 23.4444 37.544H25.6404C25.6884 38.084 25.8984 38.528 26.2704 38.876C26.6544 39.224 27.1884 39.398 27.8724 39.398C28.5804 39.398 29.1324 39.23 29.5284 38.894C29.9244 38.546 30.1224 38.102 30.1224 37.562C30.1224 37.142 29.9964 36.8 29.7444 36.536C29.5044 36.272 29.1984 36.068 28.8264 35.924C28.4664 35.78 27.9624 35.624 27.3144 35.456C26.4984 35.24 25.8324 35.024 25.3164 34.808C24.8124 34.58 24.3804 34.232 24.0204 33.764C23.6604 33.296 23.4804 32.672 23.4804 31.892C23.4804 31.172 23.6604 30.542 24.0204 30.002C24.3804 29.462 24.8844 29.048 25.5324 28.76C26.1804 28.472 26.9304 28.328 27.7824 28.328C28.9944 28.328 29.9844 28.634 30.7524 29.246C31.5324 29.846 31.9644 30.674 32.0484 31.73H29.7804C29.7444 31.274 29.5284 30.884 29.1324 30.56C28.7364 30.236 28.2144 30.074 27.5664 30.074C26.9784 30.074 26.4984 30.224 26.1264 30.524C25.7544 30.824 25.5684 31.256 25.5684 31.82C25.5684 32.204 25.6824 32.522 25.9104 32.774C26.1504 33.014 26.4504 33.206 26.8104 33.35C27.1704 33.494 27.6624 33.65 28.2864 33.818C29.1144 34.046 29.7864 34.274 30.3024 34.502C30.8304 34.73 31.2744 35.084 31.6344 35.564C32.0064 36.032 32.1924 36.662 32.1924 37.454C32.1924 38.09 32.0184 38.69 31.6704 39.254C31.3344 39.818 30.8364 40.274 30.1764 40.622C29.5284 40.958 28.7604 41.126 27.8724 41.126ZM43.7037 35.798C43.7037 36.17 43.6797 36.506 43.6317 36.806H36.0537C36.1137 37.598 36.4077 38.234 36.9357 38.714C37.4637 39.194 38.1117 39.434 38.8797 39.434C39.9837 39.434 40.7637 38.972 41.2197 38.048H43.4337C43.1337 38.96 42.5877 39.71 41.7957 40.298C41.0157 40.874 40.0437 41.162 38.8797 41.162C37.9317 41.162 37.0797 40.952 36.3237 40.532C35.5797 40.1 34.9917 39.5 34.5597 38.732C34.1397 37.952 33.9297 37.052 33.9297 36.032C33.9297 35.012 34.1337 34.118 34.5417 33.35C34.9617 32.57 35.5437 31.97 36.2877 31.55C37.0437 31.13 37.9077 30.92 38.8797 30.92C39.8157 30.92 40.6497 31.124 41.3817 31.532C42.1137 31.94 42.6837 32.516 43.0917 33.26C43.4997 33.992 43.7037 34.838 43.7037 35.798ZM41.5617 35.15C41.5497 34.394 41.2797 33.788 40.7517 33.332C40.2237 32.876 39.5697 32.648 38.7897 32.648C38.0817 32.648 37.4757 32.876 36.9717 33.332C36.4677 33.776 36.1677 34.382 36.0717 35.15H41.5617ZM50.727 30.92C51.507 30.92 52.203 31.082 52.815 31.406C53.439 31.73 53.925 32.21 54.273 32.846C54.621 33.482 54.795 34.25 54.795 35.15V41H52.761V35.456C52.761 34.568 52.539 33.89 52.095 33.422C51.651 32.942 51.045 32.702 50.277 32.702C49.509 32.702 48.897 32.942 48.441 33.422C47.997 33.89 47.775 34.568 47.775 35.456V41H45.723V31.082H47.775V32.216C48.111 31.808 48.537 31.49 49.053 31.262C49.581 31.034 50.139 30.92 50.727 30.92ZM56.7285 35.996C56.7285 35 56.9325 34.118 57.3405 33.35C57.7605 32.582 58.3245 31.988 59.0325 31.568C59.7525 31.136 60.5505 30.92 61.4265 30.92C62.0745 30.92 62.7105 31.064 63.3345 31.352C63.9705 31.628 64.4745 32 64.8465 32.468V27.68H66.9165V41H64.8465V39.506C64.5105 39.986 64.0425 40.382 63.4425 40.694C62.8545 41.006 62.1765 41.162 61.4085 41.162C60.5445 41.162 59.7525 40.946 59.0325 40.514C58.3245 40.07 57.7605 39.458 57.3405 38.678C56.9325 37.886 56.7285 36.992 56.7285 35.996ZM64.8465 36.032C64.8465 35.348 64.7025 34.754 64.4145 34.25C64.1385 33.746 63.7725 33.362 63.3165 33.098C62.8605 32.834 62.3685 32.702 61.8405 32.702C61.3125 32.702 60.8205 32.834 60.3645 33.098C59.9085 33.35 59.5365 33.728 59.2485 34.232C58.9725 34.724 58.8345 35.312 58.8345 35.996C58.8345 36.68 58.9725 37.28 59.2485 37.796C59.5365 38.312 59.9085 38.708 60.3645 38.984C60.8325 39.248 61.3245 39.38 61.8405 39.38C62.3685 39.38 62.8605 39.248 63.3165 38.984C63.7725 38.72 64.1385 38.336 64.4145 37.832C64.7025 37.316 64.8465 36.716 64.8465 36.032ZM76.3215 28.49V36.464C76.3215 37.412 76.5675 38.126 77.0595 38.606C77.5635 39.086 78.2595 39.326 79.1475 39.326C80.0475 39.326 80.7435 39.086 81.2355 38.606C81.7395 38.126 81.9915 37.412 81.9915 36.464V28.49H84.0435V36.428C84.0435 37.448 83.8215 38.312 83.3775 39.02C82.9335 39.728 82.3395 40.256 81.5955 40.604C80.8515 40.952 80.0295 41.126 79.1295 41.126C78.2295 41.126 77.4075 40.952 76.6635 40.604C75.9315 40.256 75.3495 39.728 74.9175 39.02C74.4855 38.312 74.2695 37.448 74.2695 36.428V28.49H76.3215ZM90.3152 41.162C89.5352 41.162 88.8332 41.024 88.2092 40.748C87.5972 40.46 87.1112 40.076 86.7512 39.596C86.3912 39.104 86.1992 38.558 86.1752 37.958H88.2992C88.3352 38.378 88.5332 38.732 88.8932 39.02C89.2652 39.296 89.7272 39.434 90.2792 39.434C90.8552 39.434 91.2992 39.326 91.6112 39.11C91.9352 38.882 92.0972 38.594 92.0972 38.246C92.0972 37.874 91.9172 37.598 91.5572 37.418C91.2092 37.238 90.6512 37.04 89.8832 36.824C89.1392 36.62 88.5332 36.422 88.0652 36.23C87.5972 36.038 87.1892 35.744 86.8412 35.348C86.5052 34.952 86.3372 34.43 86.3372 33.782C86.3372 33.254 86.4932 32.774 86.8052 32.342C87.1172 31.898 87.5612 31.55 88.1372 31.298C88.7252 31.046 89.3972 30.92 90.1532 30.92C91.2812 30.92 92.1872 31.208 92.8712 31.784C93.5672 32.348 93.9392 33.122 93.9872 34.106H91.9352C91.8992 33.662 91.7192 33.308 91.3952 33.044C91.0712 32.78 90.6332 32.648 90.0812 32.648C89.5412 32.648 89.1272 32.75 88.8392 32.954C88.5512 33.158 88.4072 33.428 88.4072 33.764C88.4072 34.028 88.5032 34.25 88.6952 34.43C88.8872 34.61 89.1212 34.754 89.3972 34.862C89.6732 34.958 90.0812 35.084 90.6212 35.24C91.3412 35.432 91.9292 35.63 92.3852 35.834C92.8532 36.026 93.2552 36.314 93.5912 36.698C93.9272 37.082 94.1012 37.592 94.1132 38.228C94.1132 38.792 93.9572 39.296 93.6452 39.74C93.3332 40.184 92.8892 40.532 92.3132 40.784C91.7492 41.036 91.0832 41.162 90.3152 41.162ZM108.548 38.444H103.31L102.41 41H100.268L104.75 28.472H107.126L111.608 41H109.448L108.548 38.444ZM107.972 36.77L105.938 30.956L103.886 36.77H107.972ZM131.409 28.49V41H129.357V32.432L125.541 41H124.119L120.285 32.432V41H118.233V28.49H120.447L124.839 38.3L129.213 28.49H131.409ZM143.196 35.798C143.196 36.17 143.172 36.506 143.124 36.806H135.546C135.606 37.598 135.9 38.234 136.428 38.714C136.956 39.194 137.604 39.434 138.372 39.434C139.476 39.434 140.256 38.972 140.712 38.048H142.926C142.626 38.96 142.08 39.71 141.288 40.298C140.508 40.874 139.536 41.162 138.372 41.162C137.424 41.162 136.572 40.952 135.816 40.532C135.072 40.1 134.484 39.5 134.052 38.732C133.632 37.952 133.422 37.052 133.422 36.032C133.422 35.012 133.626 34.118 134.034 33.35C134.454 32.57 135.036 31.97 135.78 31.55C136.536 31.13 137.4 30.92 138.372 30.92C139.308 30.92 140.142 31.124 140.874 31.532C141.606 31.94 142.176 32.516 142.584 33.26C142.992 33.992 143.196 34.838 143.196 35.798ZM141.054 35.15C141.042 34.394 140.772 33.788 140.244 33.332C139.716 32.876 139.062 32.648 138.282 32.648C137.574 32.648 136.968 32.876 136.464 33.332C135.96 33.776 135.66 34.382 135.564 35.15H141.054ZM148.815 41.162C148.035 41.162 147.333 41.024 146.709 40.748C146.097 40.46 145.611 40.076 145.251 39.596C144.891 39.104 144.699 38.558 144.675 37.958H146.799C146.835 38.378 147.033 38.732 147.393 39.02C147.765 39.296 148.227 39.434 148.779 39.434C149.355 39.434 149.799 39.326 150.111 39.11C150.435 38.882 150.597 38.594 150.597 38.246C150.597 37.874 150.417 37.598 150.057 37.418C149.709 37.238 149.151 37.04 148.383 36.824C147.639 36.62 147.033 36.422 146.565 36.23C146.097 36.038 145.689 35.744 145.341 35.348C145.005 34.952 144.837 34.43 144.837 33.782C144.837 33.254 144.993 32.774 145.305 32.342C145.617 31.898 146.061 31.55 146.637 31.298C147.225 31.046 147.897 30.92 148.653 30.92C149.781 30.92 150.687 31.208 151.371 31.784C152.067 32.348 152.439 33.122 152.487 34.106H150.435C150.399 33.662 150.219 33.308 149.895 33.044C149.571 32.78 149.133 32.648 148.581 32.648C148.041 32.648 147.627 32.75 147.339 32.954C147.051 33.158 146.907 33.428 146.907 33.764C146.907 34.028 147.003 34.25 147.195 34.43C147.387 34.61 147.621 34.754 147.897 34.862C148.173 34.958 148.581 35.084 149.121 35.24C149.841 35.432 150.429 35.63 150.885 35.834C151.353 36.026 151.755 36.314 152.091 36.698C152.427 37.082 152.601 37.592 152.613 38.228C152.613 38.792 152.457 39.296 152.145 39.74C151.833 40.184 151.389 40.532 150.813 40.784C150.249 41.036 149.583 41.162 148.815 41.162ZM158.43 41.162C157.65 41.162 156.948 41.024 156.324 40.748C155.712 40.46 155.226 40.076 154.866 39.596C154.506 39.104 154.314 38.558 154.29 37.958H156.414C156.45 38.378 156.648 38.732 157.008 39.02C157.38 39.296 157.842 39.434 158.394 39.434C158.97 39.434 159.414 39.326 159.726 39.11C160.05 38.882 160.212 38.594 160.212 38.246C160.212 37.874 160.032 37.598 159.672 37.418C159.324 37.238 158.766 37.04 157.998 36.824C157.254 36.62 156.648 36.422 156.18 36.23C155.712 36.038 155.304 35.744 154.956 35.348C154.62 34.952 154.452 34.43 154.452 33.782C154.452 33.254 154.608 32.774 154.92 32.342C155.232 31.898 155.676 31.55 156.252 31.298C156.84 31.046 157.512 30.92 158.268 30.92C159.396 30.92 160.302 31.208 160.986 31.784C161.682 32.348 162.054 33.122 162.102 34.106H160.05C160.014 33.662 159.834 33.308 159.51 33.044C159.186 32.78 158.748 32.648 158.196 32.648C157.656 32.648 157.242 32.75 156.954 32.954C156.666 33.158 156.522 33.428 156.522 33.764C156.522 34.028 156.618 34.25 156.81 34.43C157.002 34.61 157.236 34.754 157.512 34.862C157.788 34.958 158.196 35.084 158.736 35.24C159.456 35.432 160.044 35.63 160.5 35.834C160.968 36.026 161.37 36.314 161.706 36.698C162.042 37.082 162.216 37.592 162.228 38.228C162.228 38.792 162.072 39.296 161.76 39.74C161.448 40.184 161.004 40.532 160.428 40.784C159.864 41.036 159.198 41.162 158.43 41.162ZM163.762 35.996C163.762 35 163.966 34.118 164.374 33.35C164.794 32.582 165.358 31.988 166.066 31.568C166.786 31.136 167.578 30.92 168.442 30.92C169.222 30.92 169.9 31.076 170.476 31.388C171.064 31.688 171.532 32.066 171.88 32.522V31.082H173.95V41H171.88V39.524C171.532 39.992 171.058 40.382 170.458 40.694C169.858 41.006 169.174 41.162 168.406 41.162C167.554 41.162 166.774 40.946 166.066 40.514C165.358 40.07 164.794 39.458 164.374 38.678C163.966 37.886 163.762 36.992 163.762 35.996ZM171.88 36.032C171.88 35.348 171.736 34.754 171.448 34.25C171.172 33.746 170.806 33.362 170.35 33.098C169.894 32.834 169.402 32.702 168.874 32.702C168.346 32.702 167.854 32.834 167.398 33.098C166.942 33.35 166.57 33.728 166.282 34.232C166.006 34.724 165.868 35.312 165.868 35.996C165.868 36.68 166.006 37.28 166.282 37.796C166.57 38.312 166.942 38.708 167.398 38.984C167.866 39.248 168.358 39.38 168.874 39.38C169.402 39.38 169.894 39.248 170.35 38.984C170.806 38.72 171.172 38.336 171.448 37.832C171.736 37.316 171.88 36.716 171.88 36.032ZM180.641 30.92C181.409 30.92 182.087 31.076 182.675 31.388C183.275 31.688 183.743 32.066 184.079 32.522V31.082H186.149V41.162C186.149 42.074 185.957 42.884 185.573 43.592C185.189 44.312 184.631 44.876 183.899 45.284C183.179 45.692 182.315 45.896 181.307 45.896C179.963 45.896 178.847 45.578 177.959 44.942C177.071 44.318 176.567 43.466 176.447 42.386H178.481C178.637 42.902 178.967 43.316 179.471 43.628C179.987 43.952 180.599 44.114 181.307 44.114C182.135 44.114 182.801 43.862 183.305 43.358C183.821 42.854 184.079 42.122 184.079 41.162V39.506C183.731 39.974 183.257 40.37 182.657 40.694C182.069 41.006 181.397 41.162 180.641 41.162C179.777 41.162 178.985 40.946 178.265 40.514C177.557 40.07 176.993 39.458 176.573 38.678C176.165 37.886 175.961 36.992 175.961 35.996C175.961 35 176.165 34.118 176.573 33.35C176.993 32.582 177.557 31.988 178.265 31.568C178.985 31.136 179.777 30.92 180.641 30.92ZM184.079 36.032C184.079 35.348 183.935 34.754 183.647 34.25C183.371 33.746 183.005 33.362 182.549 33.098C182.093 32.834 181.601 32.702 181.073 32.702C180.545 32.702 180.053 32.834 179.597 33.098C179.141 33.35 178.769 33.728 178.481 34.232C178.205 34.724 178.067 35.312 178.067 35.996C178.067 36.68 178.205 37.28 178.481 37.796C178.769 38.312 179.141 38.708 179.597 38.984C180.065 39.248 180.557 39.38 181.073 39.38C181.601 39.38 182.093 39.248 182.549 38.984C183.005 38.72 183.371 38.336 183.647 37.832C183.935 37.316 184.079 36.716 184.079 36.032ZM197.934 35.798C197.934 36.17 197.91 36.506 197.862 36.806H190.284C190.344 37.598 190.638 38.234 191.166 38.714C191.694 39.194 192.342 39.434 193.11 39.434C194.214 39.434 194.994 38.972 195.45 38.048H197.664C197.364 38.96 196.818 39.71 196.026 40.298C195.246 40.874 194.274 41.162 193.11 41.162C192.162 41.162 191.31 40.952 190.554 40.532C189.81 40.1 189.222 39.5 188.79 38.732C188.37 37.952 188.16 37.052 188.16 36.032C188.16 35.012 188.364 34.118 188.772 33.35C189.192 32.57 189.774 31.97 190.518 31.55C191.274 31.13 192.138 30.92 193.11 30.92C194.046 30.92 194.88 31.124 195.612 31.532C196.344 31.94 196.914 32.516 197.322 33.26C197.73 33.992 197.934 34.838 197.934 35.798ZM195.792 35.15C195.78 34.394 195.51 33.788 194.982 33.332C194.454 32.876 193.8 32.648 193.02 32.648C192.312 32.648 191.706 32.876 191.202 33.332C190.698 33.776 190.398 34.382 190.302 35.15H195.792Z" fill="white" fill-opacity="0.7"/>
</svg>
